<?xml version="1.0" ?><svg viewBox="0 0 64 64" xmlns="http://www.w3.org/2000/svg"><g id="a"/><g id="b"/><g id="c"/><g id="d"/><g id="e"/><g id="f"/><g id="g"/><g id="h"/><g id="i"/><g id="j"/><g id="k"/><g id="l"/><g id="m"/><g id="n"/><g id="o"/><g id="p"/><g id="q"/><g id="r"/><g id="s"/><g id="t"/><g id="u"/><g id="v"/><g id="w"/><g id="x"/><g id="y"/><g id="a`"/><g id="aa"/><g id="ab"/><g id="ac"/><g id="ad"/><g id="ae"/><g id="af"/><g id="ag"/><g id="ah"/><g id="ai"/><g id="aj"/><g id="ak"/><g id="al"/><g id="am"/><g id="an"/><g id="ao"><path d="M60,39.43c0-1.77-1.15-3.86-2.61-4.77-2.97-1.84-6.15-3.55-9.34-3.55-2.92,0-5.9,1.43-9.29,3.53-.94-.62-1.87-1.23-2.74-1.81-5.32-3.54-9.51-6.34-13.61-6.34-.68,0-1.37,.1-2.07,.25H10.16c-1.69,0-3.07,1.38-3.07,3.07,0,1.31,.82,2.41,1.97,2.86-.1,.06-.19,.12-.28,.19l-1.54,1.02c-1.81,1.2-3.23,3.81-3.23,5.96v15.26h0c0,1.95,1.71,3.53,3.8,3.53H56.2c2.1,0,3.8-1.58,3.8-3.53h0v-15.67Zm-49.83,1.39c-.26-1.26,.11-2.69,.96-3.73,.14-.18,.32-.36,.53-.54-.42,1.43-.59,3.12-.46,4.56l.6,6.89c-.05,.02-.1,.04-.15,.06l-1.48-7.24Zm3.58,6.5l-.56-6.39c-.18-2.04,.28-4.42,1-5.21,.18-.19,.27-.19,.45,0,.72,.79,1.18,3.17,1,5.21l-.52,6c-.47,.13-.93,.26-1.37,.39Zm3.42-10.78c.21,.18,.39,.36,.53,.54,.85,1.04,1.22,2.47,.96,3.73l-1.13,5.53c-.12,.03-.24,.05-.36,.07l.46-5.32c.12-1.44-.04-3.13-.46-4.56Zm18.32,2.61c4.93-3.29,8.84-5.89,12.28-6.02,2.75,1.72,6.45,6.91,10.23,14.37v3.9c-3.4-3.23-11.42-6.38-26-6.38-2.25,0-4.32,.09-6.27,.23,3.67-2.05,6.87-4.16,9.76-6.09Zm22.51,.28v3.81c-1.77-3.19-4.03-6.8-6.37-9.37,1.33,.52,2.85,1.33,4.7,2.48,.89,.55,1.67,1.99,1.67,3.07Zm-21.09-3.61c-.82,.53-1.65,1.09-2.53,1.67-.84,.56-1.72,1.14-2.61,1.73-1.69-3.37-3.64-7.36-5.84-9.95,2.63,1.02,5.55,2.95,8.98,5.23,.64,.42,1.33,.88,2,1.32Zm-26.75-4.93c-.59,0-1.07-.48-1.07-1.08s.47-1.07,1.07-1.07h5.16c-1.14,.62-2.33,1.35-3.57,2.15h-1.59Zm-1.82,4.65l1.54-1.03c4.91-3.28,8.82-5.87,12.25-6,3.33,2.08,5.91,7.75,7.94,11.79-2.93,1.87-6.15,3.79-9.88,5.56-.18,.03-.37,.05-.54,.08l.57-2.79c.07,.01,.13,.03,.2,.03,.41,0,.8-.26,.94-.67,.18-.52-.09-1.09-.61-1.27l-.13-.05c.15-.75,.12-1.54-.02-2.31l.23-.08c.52-.18,.81-.74,.63-1.27s-.74-.81-1.27-.63l-.2,.07c-.21-.41-.45-.8-.74-1.16-1.19-1.45-2.9-2.25-4.83-2.25s-3.65,.8-4.83,2.25c-1.22,1.5-1.75,3.56-1.37,5.4l.2,.97c-.43,.18-.73,.59-.64,1.06,.09,.48,.51,.82,.98,.82,.01,0,.03,0,.04,0l.4,1.98-.46,.17c-.52,.19-.78,.77-.59,1.29,.15,.4,.53,.65,.94,.65,.12,0,.23-.02,.35-.06l.16-.06,.18,.86c-1.62,.8-2.87,1.65-3.78,2.52v-11.56c0-1.49,1.07-3.46,2.34-4.3Zm47.86,21.09H7.8c-1,0-1.8-.69-1.8-1.53h0c0-2.16,6.16-8.08,26-8.08s26,5.92,26,8.08h0c0,.84-.81,1.53-1.8,1.53Z"/><path d="M53.29,21.66c0-1.85-1.51-3.36-3.36-3.36s-3.36,1.51-3.36,3.36,1.51,3.37,3.36,3.37,3.36-1.51,3.36-3.37Zm-3.36,1.37c-.75,0-1.36-.61-1.36-1.37s.61-1.36,1.36-1.36,1.36,.61,1.36,1.36-.61,1.37-1.36,1.37Z"/><path d="M50.93,16.74v-1.37c0-.55-.45-1-1-1s-1,.45-1,1v1.37c0,.55,.45,1,1,1s1-.45,1-1Z"/><path d="M48.93,26.59v1.37c0,.55,.45,1,1,1s1-.45,1-1v-1.37c0-.55-.45-1-1-1s-1,.45-1,1Z"/><path d="M57.23,21.66c0-.55-.45-1-1-1h-1.37c-.55,0-1,.45-1,1s.45,1,1,1h1.37c.55,0,1-.45,1-1Z"/><path d="M42.64,21.66c0,.55,.45,1,1,1h1.37c.55,0,1-.45,1-1s-.45-1-1-1h-1.37c-.55,0-1,.45-1,1Z"/><path d="M54.13,18.89l.97-.97c.39-.39,.39-1.02,0-1.41-.39-.39-1.02-.39-1.41,0l-.97,.97c-.39,.39-.39,1.02,0,1.41,.19,.19,.45,.29,.71,.29s.51-.1,.71-.29Z"/><path d="M45.48,27.12c.26,0,.51-.1,.71-.29l.97-.97c.39-.39,.39-1.02,0-1.41-.39-.39-1.02-.39-1.41,0l-.97,.97c-.39,.39-.39,1.02,0,1.41,.2,.19,.45,.29,.71,.29Z"/><path d="M53.67,26.83c.2,.2,.45,.29,.71,.29s.51-.1,.71-.29c.39-.39,.39-1.02,0-1.41l-.97-.97c-.39-.39-1.02-.39-1.41,0-.39,.39-.39,1.02,0,1.41l.97,.97Z"/><path d="M46.45,19.18c.25,0,.51-.1,.71-.29,.39-.39,.39-1.02,0-1.41l-.97-.97c-.39-.39-1.02-.39-1.41,0-.39,.39-.39,1.02,0,1.41l.97,.97c.2,.2,.45,.29,.71,.29Z"/><path d="M23.57,13.01c-1.6,0-2.9,1.3-2.9,2.9s1.3,2.9,2.9,2.9h5.05c.18,0,.33,.15,.33,.34s-.15,.34-.33,.34h-.81c-1.6,0-2.9,1.3-2.9,2.9s1.3,2.9,2.9,2.9h9.07c1.6,0,2.9-1.3,2.9-2.9s-1.3-2.9-2.9-2.9h-1.88c-.19,0-.34-.15-.34-.34s.15-.34,.33-.34h.61c1.6,0,2.9-1.3,2.9-2.9s-1.3-2.9-2.9-2.9h-12.02Zm12.93,2.9c0,.5-.4,.9-.9,.9h-.62c-1.28,.02-2.31,1.07-2.31,2.34s1.04,2.32,2.33,2.34h1.89c.51,0,.9,.4,.9,.9s-.4,.9-.9,.9h-9.07c-.5,0-.9-.4-.9-.9s.4-.9,.9-.9h.81c1.29,0,2.33-1.05,2.33-2.34s-1.05-2.34-2.33-2.34h-5.05c-.51,0-.9-.4-.9-.9s.41-.9,.9-.9h12.02c.5,0,.9,.4,.9,.9Z"/><path d="M10.23,11.85h-1.89c-1.6,0-2.9,1.3-2.9,2.9s1.3,2.9,2.9,2.9h9.07c1.6,0,2.9-1.3,2.9-2.9s-1.3-2.9-2.9-2.9h-.81c-.19,0-.34-.15-.34-.33s.15-.34,.34-.34h8.86c1.6,0,2.9-1.3,2.9-2.9s-1.3-2.9-2.9-2.9H9.62c-1.6,0-2.9,1.3-2.9,2.9s1.3,2.9,2.9,2.9h.61c.18,0,.33,.15,.33,.34s-.15,.33-.33,.33Zm0-2.67h-.61c-.5,0-.9-.4-.9-.9s.4-.9,.9-.9h15.83c.51,0,.9,.4,.9,.9s-.41,.9-.9,.9h-8.86c-1.29,0-2.34,1.05-2.34,2.34s1.05,2.33,2.34,2.33h.81c.5,0,.9,.4,.9,.9s-.4,.9-.9,.9H8.34c-.5,0-.9-.4-.9-.9s.4-.9,.9-.9h1.89c1.28,0,2.33-1.05,2.33-2.33s-1.04-2.34-2.33-2.34Z"/><path d="M53.13,6.12h-13.7c-1.69,0-3.07,1.38-3.07,3.07s1.38,3.08,3.07,3.08h13.7c1.7,0,3.07-1.38,3.07-3.08s-1.38-3.07-3.07-3.07Zm0,4.15h-13.7c-.59,0-1.07-.48-1.07-1.08s.47-1.07,1.07-1.07h13.7c.6,0,1.07,.47,1.07,1.07s-.48,1.08-1.07,1.08Z"/></g><g id="ap"/><g id="aq"/><g id="ar"/><g id="as"/><g id="at"/><g id="au"/><g id="av"/><g id="aw"/><g id="ax"/></svg>