<?xml version="1.0" ?><!DOCTYPE svg  PUBLIC '-//W3C//DTD SVG 1.1//EN'  'http://www.w3.org/Graphics/SVG/1.1/DTD/svg11.dtd'><svg height="8.4666mm" style="shape-rendering:geometricPrecision; text-rendering:geometricPrecision; image-rendering:optimizeQuality; fill-rule:evenodd; clip-rule:evenodd" version="1.1" viewBox="0 0 846.66 846.66" width="8.4666mm" xml:space="preserve" xmlns="http://www.w3.org/2000/svg" xmlns:xlink="http://www.w3.org/1999/xlink"><defs><style type="text/css">
   <![CDATA[
    .fil0 {fill:black;fill-rule:nonzero}
   ]]>
  </style></defs><g id="Layer_x0020_1"><path class="fil0" d="M369.72 397.94c33.88,-64.5 -2.07,-142.93 -52.88,-187.23 -57.65,-50.26 -158.33,-52.97 -231.22,-52.38l284.1 239.61zm-317.02 -214.34c2.72,78.83 13.71,189.04 79.01,242.41 60.7,52.8 152.78,61.49 213.1,3.95l-292.11 -246.36zm-41.13 -43.04c-0.64,-11.61 8.61,-21.38 20.26,-21.37 97.29,-3.98 233.71,-6.92 311.67,61.05 68.22,59.48 108.28,164.2 56.34,246.49 13.32,16.01 24.66,33.14 33.87,51.47 11.71,-38.09 29.57,-73.72 49.78,-107.97 -64.36,-73.15 -41.05,-183.18 17.21,-252.56 66.48,-79.18 202.66,-97.56 299.36,-108.64 11.3,-1.29 21.32,6.92 22.49,18.19 15.79,99.52 29.44,244.44 -42.72,325.74 -69.54,76.71 -175.53,107.41 -265.34,44.57 -30.47,52.85 -54.34,109.34 -54.34,171.4l0 57.75 115.5 0c51.63,0 65.88,70.83 19.34,91.52 -8.16,67.88 -66.3,119.57 -134.81,119.57l-40.69 0c-68.52,0 -126.67,-51.71 -134.82,-119.6 -47.72,-21.36 -31.05,-91.49 19.35,-91.49l115.5 0 0 -56.67c-5.19,-41.45 -20.39,-78.54 -46.07,-111.42 -76.83,74.16 -188.15,63.86 -267.45,-1.16 -85.89,-70.19 -94.66,-214.11 -94.43,-316.87zm777.06 -63.71l-245.79 290.94c71.12,45.41 153.9,17.62 206.67,-41.65 54.1,-60.96 48.29,-173.26 39.12,-249.29zm-276.56 264.53l241.07 -285.35c-72.52,10.67 -171.84,28.73 -221.33,87.67 -44.53,53.04 -68,139.59 -19.74,197.68zm-92.58 455.75l40.69 0c44.58,0 83.4,-31.47 92.95,-74.83l-226.59 0c9.55,43.36 48.37,74.83 92.95,74.83zm156.16 -129.82l-271.63 0c-9.45,0 -9.36,14.36 0,14.36l271.63 0c9.35,0 9.56,-14.36 0,-14.36z"/></g></svg>